<mxfile host="app.diagrams.net" modified="2021-02-13T08:35:29.129Z" agent="5.0 (Macintosh; Intel Mac OS X 11_2_1) AppleWebKit/537.36 (KHTML, like Gecko) Chrome/88.0.4324.152 Safari/537.36" etag="OG2Oi-8nLe-Uz2pxQTak" version="14.3.1" type="github">
  <diagram id="SE0fAMs2pIO94VYv387B" name="Page-1">
    <mxGraphModel dx="2843" dy="576" grid="1" gridSize="10" guides="1" tooltips="1" connect="1" arrows="1" fold="1" page="1" pageScale="1" pageWidth="1169" pageHeight="827" math="0" shadow="0">
      <root>
        <mxCell id="0" />
        <mxCell id="1" parent="0" />
        <mxCell id="2XsZhImcgwUFispmaOo--1" value="&lt;font style=&quot;font-size: 26px&quot;&gt;Gougen ERA&lt;/font&gt;" style="rounded=1;whiteSpace=wrap;html=1;shadow=0;labelBackgroundColor=none;strokeColor=none;strokeWidth=3;fontFamily=Helvetica;fontSize=14;align=center;spacing=5;fontStyle=0;arcSize=2;perimeterSpacing=2;verticalAlign=top;opacity=60;fillColor=#99004D;fontColor=#FFFFFF;" vertex="1" parent="1">
          <mxGeometry x="1161" y="880" width="380" height="913" as="geometry" />
        </mxCell>
        <mxCell id="2XsZhImcgwUFispmaOo--2" value="&lt;font style=&quot;font-size: 26px&quot;&gt;Shelley ERA&lt;/font&gt;" style="rounded=1;whiteSpace=wrap;html=1;shadow=0;labelBackgroundColor=none;strokeColor=#3A5431;strokeWidth=3;fontFamily=Helvetica;fontSize=14;align=center;spacing=5;fontStyle=0;arcSize=1;perimeterSpacing=2;verticalAlign=top;opacity=60;fontColor=#ffffff;fillColor=#3399FF;" vertex="1" parent="1">
          <mxGeometry x="40" y="880" width="1100" height="913" as="geometry" />
        </mxCell>
        <mxCell id="2XsZhImcgwUFispmaOo--3" value="&lt;font style=&quot;font-size: 16px&quot;&gt;&lt;br&gt;&lt;/font&gt;" style="rounded=0;whiteSpace=wrap;html=1;fontSize=17;align=center;fillColor=#e1d5e7;strokeColor=#9673a6;opacity=80;" vertex="1" parent="1">
          <mxGeometry x="62" y="993" width="320" height="780" as="geometry" />
        </mxCell>
        <mxCell id="2XsZhImcgwUFispmaOo--4" value="" style="rounded=0;whiteSpace=wrap;html=1;fontSize=17;align=center;fillColor=#a0522d;strokeColor=#6D1F00;opacity=60;fontColor=#ffffff;" vertex="1" parent="1">
          <mxGeometry x="102" y="1343" width="268.6" height="270" as="geometry" />
        </mxCell>
        <mxCell id="2XsZhImcgwUFispmaOo--5" value="" style="rounded=0;whiteSpace=wrap;html=1;fontSize=17;opacity=60;align=center;fillColor=#76608a;strokeColor=#432D57;fontColor=#ffffff;" vertex="1" parent="1">
          <mxGeometry x="102" y="993.5" width="268.6" height="349.5" as="geometry" />
        </mxCell>
        <mxCell id="2XsZhImcgwUFispmaOo--6" value="&lt;font style=&quot;font-size: 12px&quot;&gt;&lt;b&gt;&lt;i&gt;Transaction Body&lt;/i&gt;&lt;/b&gt;&lt;/font&gt;" style="text;html=1;strokeColor=none;fillColor=none;align=center;verticalAlign=middle;whiteSpace=wrap;rounded=0;fontSize=17;opacity=40;" vertex="1" parent="1">
          <mxGeometry x="160.60000000000008" y="994.75" width="150" height="20" as="geometry" />
        </mxCell>
        <mxCell id="2XsZhImcgwUFispmaOo--7" value="&lt;font style=&quot;font-size: 12px&quot;&gt;&lt;b&gt;INPUTS&lt;/b&gt; (Set):&amp;nbsp; {(txid, id),..,(txid, id)}&lt;/font&gt;" style="rounded=0;whiteSpace=wrap;html=1;fontSize=17;align=left;fillColor=#ffe6cc;strokeColor=#d79b00;imageHeight=24;" vertex="1" parent="1">
          <mxGeometry x="110" y="1021.25" width="250" height="25" as="geometry" />
        </mxCell>
        <mxCell id="2XsZhImcgwUFispmaOo--8" value="&lt;font style=&quot;font-size: 12px&quot;&gt;&lt;b&gt;OUTPUTS &lt;/b&gt;(Seq/Array)&lt;b&gt;:&lt;/b&gt;&amp;nbsp;[(a,c),..., (a,c)]&lt;/font&gt;" style="rounded=0;whiteSpace=wrap;html=1;fontSize=17;align=left;fillColor=#ffe6cc;strokeColor=#d79b00;imageHeight=24;" vertex="1" parent="1">
          <mxGeometry x="110" y="1046.25" width="250" height="25" as="geometry" />
        </mxCell>
        <mxCell id="2XsZhImcgwUFispmaOo--9" value="&lt;font style=&quot;font-size: 12px&quot;&gt;&lt;b&gt;CERTIFICATES&lt;/b&gt; : Stake/pool/MIR/Genesis ..&lt;/font&gt;" style="rounded=0;whiteSpace=wrap;html=1;fontSize=17;align=left;fillColor=#ffe6cc;strokeColor=#d79b00;imageHeight=24;" vertex="1" parent="1">
          <mxGeometry x="110" y="1121.75" width="250" height="25" as="geometry" />
        </mxCell>
        <mxCell id="2XsZhImcgwUFispmaOo--10" value="&lt;font style=&quot;font-size: 12px&quot;&gt;&lt;b&gt;FEE&lt;/b&gt;: Coin&lt;/font&gt;" style="rounded=0;whiteSpace=wrap;html=1;fontSize=17;align=left;fillColor=#ffe6cc;strokeColor=#d79b00;imageHeight=24;" vertex="1" parent="1">
          <mxGeometry x="110" y="1071.25" width="250" height="25" as="geometry" />
        </mxCell>
        <mxCell id="2XsZhImcgwUFispmaOo--11" value="&lt;font style=&quot;font-size: 12px&quot;&gt;&lt;b&gt;TIME TO LIVE (TTL)&lt;/b&gt;: SlotNo as &lt;b&gt;uint&lt;/b&gt;&lt;/font&gt;" style="rounded=0;whiteSpace=wrap;html=1;fontSize=17;align=left;fillColor=#ffe6cc;strokeColor=#d79b00;imageHeight=24;" vertex="1" parent="1">
          <mxGeometry x="110" y="1096.25" width="250" height="25" as="geometry" />
        </mxCell>
        <mxCell id="2XsZhImcgwUFispmaOo--12" value="&lt;font style=&quot;font-size: 12px&quot;&gt;&lt;b&gt;WITHDRAWALS&lt;/b&gt; : {reward_account : coin,..}&lt;/font&gt;" style="rounded=0;whiteSpace=wrap;html=1;fontSize=17;align=left;fillColor=#ffe6cc;strokeColor=#d79b00;imageHeight=24;" vertex="1" parent="1">
          <mxGeometry x="110" y="1147" width="250" height="25" as="geometry" />
        </mxCell>
        <mxCell id="2XsZhImcgwUFispmaOo--13" value="&lt;font style=&quot;font-size: 12px&quot;&gt;&lt;b&gt;UPDATE PROPOSAL&lt;/b&gt;: [params, epoch]&lt;/font&gt;" style="rounded=0;whiteSpace=wrap;html=1;fontSize=17;align=left;fillColor=#ffe6cc;strokeColor=#d79b00;imageHeight=24;" vertex="1" parent="1">
          <mxGeometry x="110" y="1172" width="250" height="25" as="geometry" />
        </mxCell>
        <mxCell id="2XsZhImcgwUFispmaOo--14" value="&lt;font style=&quot;font-size: 12px&quot;&gt;&lt;span&gt;METADATA HASH&lt;/span&gt;: hash or null&lt;/font&gt;" style="rounded=0;whiteSpace=wrap;html=1;fontSize=17;align=left;imageHeight=24;fillColor=#FFE6CC;fontColor=#FF0000;fontStyle=3;strokeColor=#FF0000;strokeWidth=2;" vertex="1" parent="1">
          <mxGeometry x="110" y="1197" width="250" height="26" as="geometry" />
        </mxCell>
        <mxCell id="2XsZhImcgwUFispmaOo--15" value="&lt;font style=&quot;font-size: 12px&quot;&gt;&lt;span style=&quot;font-size: 12px&quot;&gt;MULTISIG SCRIPTS&lt;/span&gt;&lt;span style=&quot;font-size: 12px&quot;&gt;:&amp;nbsp; [vkey, all / any / nofk,]&lt;/span&gt;&lt;br&gt;&lt;div&gt;&lt;span&gt;{&lt;/span&gt;&lt;/div&gt;&lt;div&gt;&lt;span&gt;&quot;type&quot; :&quot;all&quot;,&lt;/span&gt;&lt;/div&gt;&lt;div&gt;&lt;span&gt;&quot;scripts&quot;: [{&lt;/span&gt;&lt;/div&gt;&lt;div&gt;&lt;span&gt;&amp;nbsp; &amp;nbsp; &amp;nbsp; &quot;type&quot;: &quot;sig&quot;,&lt;/span&gt;&lt;/div&gt;&lt;div&gt;&lt;span&gt;&amp;nbsp; &amp;nbsp; &amp;nbsp; &quot;keyHash&quot;: &quot;e09.......cdefbabe&quot;&lt;/span&gt;&lt;/div&gt;&lt;div&gt;&lt;span&gt;&amp;nbsp; &amp;nbsp; },...]&lt;/span&gt;&lt;/div&gt;&lt;div&gt;&lt;span&gt;}&lt;/span&gt;&lt;/div&gt;&lt;/font&gt;" style="rounded=0;whiteSpace=wrap;html=1;fontSize=17;align=left;verticalAlign=top;fillColor=#FFE6CC;fontStyle=3;fontColor=#FF0000;strokeColor=#FF0000;strokeWidth=2;" vertex="1" parent="1">
          <mxGeometry x="111.32" y="1394" width="250" height="139" as="geometry" />
        </mxCell>
        <mxCell id="2XsZhImcgwUFispmaOo--16" value="&lt;font style=&quot;font-size: 12px&quot;&gt;Medadata&lt;/font&gt;" style="rounded=0;whiteSpace=wrap;html=1;fontSize=12;align=center;fillColor=#6d8764;strokeColor=#3A5431;fontStyle=3;opacity=60;verticalAlign=top;fontColor=#ffffff;" vertex="1" parent="1">
          <mxGeometry x="100.62" y="1615" width="268.6" height="148" as="geometry" />
        </mxCell>
        <mxCell id="2XsZhImcgwUFispmaOo--17" value="&lt;font style=&quot;font-size: 12px&quot;&gt;&lt;b&gt;&lt;i&gt;Witness Set&lt;/i&gt;&lt;/b&gt;&lt;/font&gt;" style="text;html=1;strokeColor=none;fillColor=none;align=center;verticalAlign=middle;whiteSpace=wrap;rounded=0;fontSize=17;opacity=40;" vertex="1" parent="1">
          <mxGeometry x="159.92000000000007" y="1347.5" width="150" height="20" as="geometry" />
        </mxCell>
        <mxCell id="2XsZhImcgwUFispmaOo--18" value="&lt;font style=&quot;font-size: 12px&quot;&gt;&lt;b&gt;BOOTSTRAP_WITNESS&lt;/b&gt;: [[pk,sign,cc,attr],...]&lt;/font&gt;" style="rounded=0;whiteSpace=wrap;html=1;fontSize=17;align=left;strokeColor=#b85450;fillColor=#FFE6CC;" vertex="1" parent="1">
          <mxGeometry x="111.32" y="1533" width="250" height="25" as="geometry" />
        </mxCell>
        <mxCell id="2XsZhImcgwUFispmaOo--19" value="&lt;font style=&quot;font-size: 12px&quot;&gt;&lt;b&gt;VKEYWITNESS&lt;/b&gt;: [&amp;nbsp;vkey || signature, ... ]&lt;/font&gt;" style="rounded=0;whiteSpace=wrap;html=1;fontSize=17;align=left;strokeColor=#b85450;fillColor=#FFE6CC;" vertex="1" parent="1">
          <mxGeometry x="111.32" y="1368" width="250" height="25" as="geometry" />
        </mxCell>
        <mxCell id="2XsZhImcgwUFispmaOo--20" value="T&lt;br&gt;r&lt;br&gt;a&lt;br&gt;n&lt;br&gt;s&lt;br&gt;a&lt;br&gt;c&lt;br&gt;t&lt;br&gt;i&lt;br&gt;o&lt;br&gt;n&lt;br&gt;" style="text;html=1;strokeColor=none;fillColor=none;align=center;verticalAlign=middle;whiteSpace=wrap;rounded=0;fontSize=17;" vertex="1" parent="1">
          <mxGeometry x="62" y="994.75" width="40" height="238.25" as="geometry" />
        </mxCell>
        <mxCell id="2XsZhImcgwUFispmaOo--21" value="&lt;font style=&quot;font-size: 16px&quot;&gt;&lt;b&gt;&lt;i&gt;&lt;font color=&quot;#ff0000&quot;&gt;Optional Metadata&lt;/font&gt;&lt;/i&gt;&lt;/b&gt;&lt;br&gt;&lt;/font&gt;" style="rounded=0;whiteSpace=wrap;html=1;fontSize=17;align=center;verticalAlign=top;fillColor=#FFE6CC;strokeColor=#FF0000;strokeWidth=2;" vertex="1" parent="1">
          <mxGeometry x="108.62" y="1645" width="250" height="30" as="geometry" />
        </mxCell>
        <mxCell id="2XsZhImcgwUFispmaOo--22" value="Shelley" style="text;html=1;strokeColor=none;fillColor=none;align=center;verticalAlign=middle;whiteSpace=wrap;rounded=0;fontSize=24;" vertex="1" parent="1">
          <mxGeometry x="61" y="923" width="320" height="60" as="geometry" />
        </mxCell>
        <mxCell id="2XsZhImcgwUFispmaOo--23" value="&lt;font style=&quot;font-size: 16px&quot;&gt;&lt;br&gt;&lt;/font&gt;" style="rounded=0;whiteSpace=wrap;html=1;fontSize=17;align=center;fillColor=#e1d5e7;strokeColor=#9673a6;opacity=80;" vertex="1" parent="1">
          <mxGeometry x="421" y="993" width="320" height="780" as="geometry" />
        </mxCell>
        <mxCell id="2XsZhImcgwUFispmaOo--24" value="" style="rounded=0;whiteSpace=wrap;html=1;fontSize=17;align=center;fillColor=#a0522d;strokeColor=#6D1F00;opacity=60;fontColor=#ffffff;" vertex="1" parent="1">
          <mxGeometry x="461" y="1343" width="268.6" height="270" as="geometry" />
        </mxCell>
        <mxCell id="2XsZhImcgwUFispmaOo--25" value="" style="rounded=0;whiteSpace=wrap;html=1;fontSize=17;opacity=60;align=center;fillColor=#76608a;strokeColor=#432D57;" vertex="1" parent="1">
          <mxGeometry x="461" y="993.5" width="268.6" height="349.5" as="geometry" />
        </mxCell>
        <mxCell id="2XsZhImcgwUFispmaOo--26" value="&lt;font style=&quot;font-size: 12px&quot;&gt;&lt;b&gt;&lt;i&gt;Transaction Body&lt;/i&gt;&lt;/b&gt;&lt;/font&gt;" style="text;html=1;strokeColor=none;fillColor=none;align=center;verticalAlign=middle;whiteSpace=wrap;rounded=0;fontSize=17;opacity=40;" vertex="1" parent="1">
          <mxGeometry x="519.6000000000001" y="994.75" width="150" height="20" as="geometry" />
        </mxCell>
        <mxCell id="2XsZhImcgwUFispmaOo--27" value="&lt;font style=&quot;font-size: 12px&quot;&gt;&lt;b&gt;INPUTS&lt;/b&gt; (Set):&amp;nbsp; {(txid, id),..,(txid, id)}&lt;/font&gt;" style="rounded=0;whiteSpace=wrap;html=1;fontSize=17;align=left;fillColor=#ffe6cc;strokeColor=#d79b00;imageHeight=24;" vertex="1" parent="1">
          <mxGeometry x="469" y="1021.25" width="250" height="25" as="geometry" />
        </mxCell>
        <mxCell id="2XsZhImcgwUFispmaOo--28" value="&lt;font style=&quot;font-size: 12px&quot;&gt;&lt;b&gt;OUTPUTS &lt;/b&gt;(Seq/Array)&lt;b&gt;:&lt;/b&gt;&amp;nbsp;[(a,c),..., (a,c)]&lt;/font&gt;" style="rounded=0;whiteSpace=wrap;html=1;fontSize=17;align=left;fillColor=#ffe6cc;strokeColor=#d79b00;imageHeight=24;" vertex="1" parent="1">
          <mxGeometry x="469" y="1046.25" width="250" height="25" as="geometry" />
        </mxCell>
        <mxCell id="2XsZhImcgwUFispmaOo--29" value="&lt;font style=&quot;font-size: 12px&quot;&gt;&lt;b&gt;CERTIFICATES&lt;/b&gt; : Stake/pool/MIR/Genesis ..&lt;/font&gt;" style="rounded=0;whiteSpace=wrap;html=1;fontSize=17;align=left;fillColor=#ffe6cc;strokeColor=#d79b00;imageHeight=24;" vertex="1" parent="1">
          <mxGeometry x="469" y="1121.75" width="250" height="25" as="geometry" />
        </mxCell>
        <mxCell id="2XsZhImcgwUFispmaOo--30" value="&lt;font style=&quot;font-size: 12px&quot;&gt;&lt;b&gt;FEE&lt;/b&gt;: Coin&lt;/font&gt;" style="rounded=0;whiteSpace=wrap;html=1;fontSize=17;align=left;fillColor=#ffe6cc;strokeColor=#d79b00;imageHeight=24;" vertex="1" parent="1">
          <mxGeometry x="469" y="1071.25" width="250" height="25" as="geometry" />
        </mxCell>
        <mxCell id="2XsZhImcgwUFispmaOo--31" value="&lt;font style=&quot;font-size: 12px&quot;&gt;&lt;b&gt;TIME TO LIVE (TTL)&lt;/b&gt;:&amp;nbsp;&lt;/font&gt;&lt;span style=&quot;font-size: 12px&quot;&gt;SlotNo as&amp;nbsp;&lt;/span&gt;&lt;b style=&quot;font-size: 12px&quot;&gt;uint&lt;/b&gt;" style="rounded=0;whiteSpace=wrap;html=1;fontSize=17;align=left;fillColor=#ffe6cc;strokeColor=#d79b00;imageHeight=24;" vertex="1" parent="1">
          <mxGeometry x="469" y="1096.25" width="250" height="25" as="geometry" />
        </mxCell>
        <mxCell id="2XsZhImcgwUFispmaOo--32" value="&lt;font style=&quot;font-size: 12px&quot;&gt;&lt;b&gt;WITHDRAWALS&lt;/b&gt; : {reward_account : coin,..}&lt;/font&gt;" style="rounded=0;whiteSpace=wrap;html=1;fontSize=17;align=left;fillColor=#ffe6cc;strokeColor=#d79b00;imageHeight=24;" vertex="1" parent="1">
          <mxGeometry x="469" y="1147" width="250" height="25" as="geometry" />
        </mxCell>
        <mxCell id="2XsZhImcgwUFispmaOo--33" value="&lt;font style=&quot;font-size: 12px&quot;&gt;&lt;b&gt;UPDATE PROPOSAL&lt;/b&gt;: [params, epoch]&lt;/font&gt;" style="rounded=0;whiteSpace=wrap;html=1;fontSize=17;align=left;fillColor=#ffe6cc;strokeColor=#d79b00;imageHeight=24;" vertex="1" parent="1">
          <mxGeometry x="469" y="1172" width="250" height="25" as="geometry" />
        </mxCell>
        <mxCell id="2XsZhImcgwUFispmaOo--34" value="&lt;font style=&quot;font-size: 12px&quot;&gt;&lt;b&gt;METADATA HASH&lt;/b&gt;: hash or null&lt;/font&gt;" style="rounded=0;whiteSpace=wrap;html=1;fontSize=17;align=left;fillColor=#ffe6cc;strokeColor=#d79b00;imageHeight=24;" vertex="1" parent="1">
          <mxGeometry x="469" y="1197" width="250" height="26" as="geometry" />
        </mxCell>
        <mxCell id="2XsZhImcgwUFispmaOo--35" value="&lt;font style=&quot;font-size: 12px&quot;&gt;&lt;b style=&quot;font-size: 12px&quot;&gt;MULTISIG SCRIPTS&lt;/b&gt;&lt;span style=&quot;font-size: 12px&quot;&gt;:&amp;nbsp; + &lt;/span&gt;&lt;span style=&quot;font-size: 15px&quot;&gt;&lt;font color=&quot;#ff0000&quot;&gt;&lt;i&gt;&lt;b&gt;inv bef or after&lt;/b&gt;&lt;/i&gt;&lt;/font&gt;&lt;/span&gt;&lt;br&gt;&lt;div&gt;&lt;span&gt;&amp;nbsp; &quot;type&quot;: &quot;all&quot;,&lt;/span&gt;&lt;br&gt;&lt;/div&gt;&lt;div&gt;&lt;span&gt;&amp;nbsp; &quot;scripts&quot;:&lt;/span&gt;&lt;/div&gt;&lt;div&gt;&amp;nbsp; [ &lt;b&gt;&lt;font color=&quot;#ff0000&quot;&gt;{&lt;/font&gt;&lt;/b&gt;&lt;/div&gt;&lt;div&gt;&lt;span&gt;&lt;b&gt;&lt;font color=&quot;#ff0000&quot;&gt;&amp;nbsp; &amp;nbsp; &amp;nbsp; &quot;type&quot;: &quot;after&quot;,&amp;nbsp;&lt;/font&gt;&lt;/b&gt;&lt;/span&gt;&lt;/div&gt;&lt;div&gt;&lt;span&gt;&lt;b&gt;&lt;font color=&quot;#ff0000&quot;&gt;&amp;nbsp; &amp;nbsp; &amp;nbsp; &quot;slot&quot;:&amp;nbsp; &amp;nbsp; 1000&lt;/font&gt;&lt;/b&gt;&lt;/span&gt;&lt;/div&gt;&lt;div&gt;&lt;span&gt;&lt;b&gt;&lt;font color=&quot;#ff0000&quot;&gt;&amp;nbsp; &amp;nbsp;},&lt;/font&gt;&lt;/b&gt;&lt;/span&gt;&lt;/div&gt;&lt;div&gt;&lt;span&gt;&amp;nbsp; &amp;nbsp; {&quot;type&quot;: &quot;sig&quot;,&amp;nbsp; &amp;nbsp;&quot;keyHash&quot;: &quot;e09.....babe&quot;},&lt;/span&gt;&lt;/div&gt;&lt;/font&gt;" style="rounded=0;whiteSpace=wrap;html=1;fontSize=17;align=left;verticalAlign=top;fillColor=#FFE6CC;strokeWidth=2;strokeColor=#FF0000;" vertex="1" parent="1">
          <mxGeometry x="470.29999999999995" y="1395" width="250" height="138" as="geometry" />
        </mxCell>
        <mxCell id="2XsZhImcgwUFispmaOo--36" value="&lt;font style=&quot;font-size: 12px&quot;&gt;&lt;b&gt;&lt;i&gt;Witness Set&lt;/i&gt;&lt;/b&gt;&lt;/font&gt;" style="text;html=1;strokeColor=none;fillColor=none;align=center;verticalAlign=middle;whiteSpace=wrap;rounded=0;fontSize=17;opacity=40;" vertex="1" parent="1">
          <mxGeometry x="518.9000000000001" y="1347.5" width="150" height="20" as="geometry" />
        </mxCell>
        <mxCell id="2XsZhImcgwUFispmaOo--37" value="&lt;font style=&quot;font-size: 12px&quot;&gt;&lt;b&gt;BOOTSTRAP_WITNESS&lt;/b&gt;: [[pk,sign,cc,attr],...]&lt;/font&gt;" style="rounded=0;whiteSpace=wrap;html=1;fontSize=17;align=left;strokeColor=#b85450;fillColor=#FFE6CC;" vertex="1" parent="1">
          <mxGeometry x="470.9999999999998" y="1533" width="250" height="25" as="geometry" />
        </mxCell>
        <mxCell id="2XsZhImcgwUFispmaOo--38" value="&lt;font style=&quot;font-size: 12px&quot;&gt;&lt;b&gt;VKEYWITNESS&lt;/b&gt;: [&amp;nbsp;vkey || signature, ... ]&lt;/font&gt;" style="rounded=0;whiteSpace=wrap;html=1;fontSize=17;align=left;strokeColor=#b85450;fillColor=#FFE6CC;" vertex="1" parent="1">
          <mxGeometry x="470.31999999999994" y="1368" width="250" height="25" as="geometry" />
        </mxCell>
        <mxCell id="2XsZhImcgwUFispmaOo--39" value="T&lt;br&gt;r&lt;br&gt;a&lt;br&gt;n&lt;br&gt;s&lt;br&gt;a&lt;br&gt;c&lt;br&gt;t&lt;br&gt;i&lt;br&gt;o&lt;br&gt;n&lt;br&gt;" style="text;html=1;strokeColor=none;fillColor=none;align=center;verticalAlign=middle;whiteSpace=wrap;rounded=0;fontSize=17;" vertex="1" parent="1">
          <mxGeometry x="421" y="994.75" width="40" height="238.25" as="geometry" />
        </mxCell>
        <mxCell id="2XsZhImcgwUFispmaOo--40" value="&lt;font style=&quot;font-size: 16px&quot;&gt;&lt;br&gt;&lt;/font&gt;" style="rounded=0;whiteSpace=wrap;html=1;fontSize=17;align=center;fillColor=#e1d5e7;strokeColor=#9673a6;opacity=80;" vertex="1" parent="1">
          <mxGeometry x="781" y="992" width="320" height="781" as="geometry" />
        </mxCell>
        <mxCell id="2XsZhImcgwUFispmaOo--41" value="" style="rounded=0;whiteSpace=wrap;html=1;fontSize=17;align=center;fillColor=#a0522d;strokeColor=#6D1F00;opacity=60;fontColor=#ffffff;" vertex="1" parent="1">
          <mxGeometry x="821" y="1343" width="268.6" height="270" as="geometry" />
        </mxCell>
        <mxCell id="2XsZhImcgwUFispmaOo--42" value="" style="rounded=0;whiteSpace=wrap;html=1;fontSize=17;opacity=60;align=center;fillColor=#76608a;strokeColor=#432D57;fontColor=#ffffff;" vertex="1" parent="1">
          <mxGeometry x="821" y="992.5" width="268.6" height="350.5" as="geometry" />
        </mxCell>
        <mxCell id="2XsZhImcgwUFispmaOo--43" value="&lt;font style=&quot;font-size: 12px&quot;&gt;&lt;b&gt;&lt;i&gt;Transaction Body&lt;/i&gt;&lt;/b&gt;&lt;/font&gt;" style="text;html=1;strokeColor=none;fillColor=none;align=center;verticalAlign=middle;whiteSpace=wrap;rounded=0;fontSize=17;opacity=40;" vertex="1" parent="1">
          <mxGeometry x="879.6000000000001" y="993.75" width="150" height="20" as="geometry" />
        </mxCell>
        <mxCell id="2XsZhImcgwUFispmaOo--44" value="&lt;b style=&quot;font-size: 12px&quot;&gt;OUTPUTS&amp;nbsp;&lt;/b&gt;&lt;span style=&quot;font-size: 12px&quot;&gt;(Seq/Array)&lt;/span&gt;&lt;b style=&quot;font-size: 12px&quot;&gt;:&lt;/b&gt;&lt;span style=&quot;font-size: 12px&quot;&gt;&amp;nbsp;[(a,&lt;b&gt;&lt;font color=&quot;#ff0000&quot;&gt;value&lt;/font&gt;&lt;/b&gt;),..., (a,&lt;b&gt;&lt;font color=&quot;#ff0000&quot;&gt;v&lt;/font&gt;&lt;/b&gt;)]&lt;/span&gt;" style="rounded=0;whiteSpace=wrap;html=1;fontSize=17;align=left;imageHeight=24;fillColor=#FFE6CC;strokeColor=#FF0000;strokeWidth=2;" vertex="1" parent="1">
          <mxGeometry x="829" y="1045.25" width="250" height="25" as="geometry" />
        </mxCell>
        <mxCell id="2XsZhImcgwUFispmaOo--45" value="&lt;font style=&quot;font-size: 12px&quot;&gt;&lt;b&gt;CERTIFICATES&lt;/b&gt; : Stake/pool/MIR/Genesis ..&lt;/font&gt;" style="rounded=0;whiteSpace=wrap;html=1;fontSize=17;align=left;fillColor=#ffe6cc;strokeColor=#d79b00;imageHeight=24;" vertex="1" parent="1">
          <mxGeometry x="829" y="1120.75" width="250" height="25" as="geometry" />
        </mxCell>
        <mxCell id="2XsZhImcgwUFispmaOo--46" value="&lt;font style=&quot;font-size: 12px&quot;&gt;&lt;b&gt;FEE&lt;/b&gt;: Coin&lt;/font&gt;" style="rounded=0;whiteSpace=wrap;html=1;fontSize=17;align=left;strokeColor=#d79b00;imageHeight=24;fillColor=#FFE6CC;" vertex="1" parent="1">
          <mxGeometry x="829" y="1070.25" width="250" height="25" as="geometry" />
        </mxCell>
        <mxCell id="2XsZhImcgwUFispmaOo--47" value="&lt;font style=&quot;font-size: 12px&quot;&gt;&lt;b&gt;TIME TO LIVE (TTL)&lt;/b&gt;: Slot&lt;/font&gt;" style="rounded=0;whiteSpace=wrap;html=1;fontSize=17;align=left;fillColor=#ffe6cc;strokeColor=#d79b00;imageHeight=24;" vertex="1" parent="1">
          <mxGeometry x="829" y="1095.25" width="250" height="25" as="geometry" />
        </mxCell>
        <mxCell id="2XsZhImcgwUFispmaOo--48" value="&lt;font style=&quot;font-size: 12px&quot;&gt;&lt;b&gt;WITHDRAWALS&lt;/b&gt; : {reward_account : coin,..}&lt;/font&gt;" style="rounded=0;whiteSpace=wrap;html=1;fontSize=17;align=left;fillColor=#ffe6cc;strokeColor=#d79b00;imageHeight=24;" vertex="1" parent="1">
          <mxGeometry x="829" y="1146" width="250" height="25" as="geometry" />
        </mxCell>
        <mxCell id="2XsZhImcgwUFispmaOo--49" value="&lt;font style=&quot;font-size: 12px&quot;&gt;&lt;b&gt;UPDATE PROPOSAL&lt;/b&gt;: [params, epoch]&lt;/font&gt;" style="rounded=0;whiteSpace=wrap;html=1;fontSize=17;align=left;fillColor=#ffe6cc;strokeColor=#d79b00;imageHeight=24;" vertex="1" parent="1">
          <mxGeometry x="829" y="1171" width="250" height="25" as="geometry" />
        </mxCell>
        <mxCell id="2XsZhImcgwUFispmaOo--50" value="&lt;font style=&quot;font-size: 12px&quot;&gt;&lt;b&gt;&lt;font color=&quot;#ff0000&quot;&gt;AUXILIARY DATA &lt;/font&gt;HASH&lt;/b&gt;: hash or null&lt;/font&gt;" style="rounded=0;whiteSpace=wrap;html=1;fontSize=17;align=left;imageHeight=24;fillColor=#FFE6CC;strokeColor=#FF0000;strokeWidth=2;" vertex="1" parent="1">
          <mxGeometry x="829" y="1196" width="250" height="26" as="geometry" />
        </mxCell>
        <mxCell id="2XsZhImcgwUFispmaOo--51" value="&lt;font style=&quot;font-size: 12px&quot;&gt;&lt;b&gt;&lt;font color=&quot;#ff0000&quot;&gt;NATIVE (SIMPLE)&lt;/font&gt;&lt;font color=&quot;#ffff00&quot;&gt; &lt;/font&gt;SCRIPTS&lt;/b&gt;:&lt;font color=&quot;#ff0000&quot;&gt;&lt;b&gt;&lt;i&gt; as allegra&lt;br&gt;The multisig script has been renamed to native scripts.&lt;/i&gt;&lt;/b&gt;&lt;/font&gt;&lt;br&gt;&lt;/font&gt;" style="rounded=0;whiteSpace=wrap;html=1;fontSize=17;align=left;verticalAlign=top;fillColor=#FFE6CC;strokeColor=#FF0000;strokeWidth=2;" vertex="1" parent="1">
          <mxGeometry x="830.3" y="1394" width="250" height="139" as="geometry" />
        </mxCell>
        <mxCell id="2XsZhImcgwUFispmaOo--52" value="&lt;font style=&quot;font-size: 12px&quot; color=&quot;#ff0000&quot;&gt;Auxiliary data&lt;/font&gt;" style="rounded=0;whiteSpace=wrap;html=1;fontSize=12;align=center;fontStyle=3;opacity=60;verticalAlign=top;fillColor=#6d8764;fontColor=#ffffff;strokeColor=#FF0000;strokeWidth=2;" vertex="1" parent="1">
          <mxGeometry x="821" y="1615" width="268.6" height="148" as="geometry" />
        </mxCell>
        <mxCell id="2XsZhImcgwUFispmaOo--53" value="&lt;font style=&quot;font-size: 12px&quot;&gt;&lt;b&gt;&lt;i&gt;Witness Set&lt;/i&gt;&lt;/b&gt;&lt;/font&gt;" style="text;html=1;strokeColor=none;fillColor=none;align=center;verticalAlign=middle;whiteSpace=wrap;rounded=0;fontSize=17;opacity=40;" vertex="1" parent="1">
          <mxGeometry x="878.9000000000001" y="1343" width="150" height="20" as="geometry" />
        </mxCell>
        <mxCell id="2XsZhImcgwUFispmaOo--54" value="&lt;font style=&quot;font-size: 12px&quot;&gt;&lt;b&gt;BOOTSTRAP_WITNESS&lt;/b&gt;: [[pk,sign,cc,attr],...]&lt;/font&gt;" style="rounded=0;whiteSpace=wrap;html=1;fontSize=17;align=left;strokeColor=#b85450;fillColor=#FFE6CC;" vertex="1" parent="1">
          <mxGeometry x="828.8999999999999" y="1533" width="250" height="25" as="geometry" />
        </mxCell>
        <mxCell id="2XsZhImcgwUFispmaOo--55" value="&lt;font style=&quot;font-size: 12px&quot;&gt;&lt;b&gt;VKEYWITNESS&lt;/b&gt;: [&amp;nbsp;vkey || signature, ... ]&lt;/font&gt;" style="rounded=0;whiteSpace=wrap;html=1;fontSize=17;align=left;strokeColor=#b85450;fillColor=#FFE6CC;" vertex="1" parent="1">
          <mxGeometry x="830.3" y="1368" width="250" height="25" as="geometry" />
        </mxCell>
        <mxCell id="2XsZhImcgwUFispmaOo--56" value="T&lt;br&gt;r&lt;br&gt;a&lt;br&gt;n&lt;br&gt;s&lt;br&gt;a&lt;br&gt;c&lt;br&gt;t&lt;br&gt;i&lt;br&gt;o&lt;br&gt;n&lt;br&gt;" style="text;html=1;strokeColor=none;fillColor=none;align=center;verticalAlign=middle;whiteSpace=wrap;rounded=0;fontSize=17;" vertex="1" parent="1">
          <mxGeometry x="781" y="993.75" width="40" height="238.25" as="geometry" />
        </mxCell>
        <mxCell id="2XsZhImcgwUFispmaOo--57" value="&lt;font style=&quot;font-size: 16px&quot;&gt;&lt;br&gt;&lt;/font&gt;" style="rounded=0;whiteSpace=wrap;html=1;fontSize=17;align=center;fillColor=#e1d5e7;strokeColor=#9673a6;opacity=80;" vertex="1" parent="1">
          <mxGeometry x="1181" y="993" width="320" height="780" as="geometry" />
        </mxCell>
        <mxCell id="2XsZhImcgwUFispmaOo--58" value="" style="rounded=0;whiteSpace=wrap;html=1;fontSize=17;align=center;fillColor=#a0522d;strokeColor=#6D1F00;opacity=60;fontColor=#ffffff;" vertex="1" parent="1">
          <mxGeometry x="1221" y="1343" width="268.6" height="220" as="geometry" />
        </mxCell>
        <mxCell id="2XsZhImcgwUFispmaOo--59" value="" style="rounded=0;whiteSpace=wrap;html=1;fontSize=17;opacity=60;align=center;fillColor=#76608a;strokeColor=#432D57;fontColor=#ffffff;" vertex="1" parent="1">
          <mxGeometry x="1221" y="993.5" width="268.6" height="349.5" as="geometry" />
        </mxCell>
        <mxCell id="2XsZhImcgwUFispmaOo--60" value="&lt;font style=&quot;font-size: 12px&quot;&gt;&lt;b&gt;&lt;i&gt;Transaction Body&lt;/i&gt;&lt;/b&gt;&lt;/font&gt;" style="text;html=1;strokeColor=none;fillColor=none;align=center;verticalAlign=middle;whiteSpace=wrap;rounded=0;fontSize=17;opacity=40;" vertex="1" parent="1">
          <mxGeometry x="1279.6000000000001" y="994.75" width="150" height="20" as="geometry" />
        </mxCell>
        <mxCell id="2XsZhImcgwUFispmaOo--61" value="&lt;font style=&quot;font-size: 12px&quot;&gt;&lt;b&gt;INPUTS&lt;/b&gt; (Set):&amp;nbsp; {(txid, id, &lt;b&gt;&lt;font color=&quot;#ff0000&quot;&gt;redemer&lt;/font&gt;&lt;/b&gt;),.., *}&lt;/font&gt;" style="rounded=0;whiteSpace=wrap;html=1;fontSize=17;align=left;imageHeight=24;fillColor=#FFE6CC;strokeColor=#FF0000;strokeWidth=2;" vertex="1" parent="1">
          <mxGeometry x="1229" y="1021.25" width="250" height="25" as="geometry" />
        </mxCell>
        <mxCell id="2XsZhImcgwUFispmaOo--62" value="&lt;b style=&quot;font-size: 12px&quot;&gt;OUTPUTS&amp;nbsp;&lt;/b&gt;&lt;span style=&quot;font-size: 12px&quot;&gt;(Seq/Array)&lt;/span&gt;&lt;b style=&quot;font-size: 12px&quot;&gt;:&lt;/b&gt;&lt;span style=&quot;font-size: 12px&quot;&gt;&amp;nbsp;[(a,v,&lt;b style=&quot;color: rgb(255 , 255 , 0)&quot;&gt; &lt;/b&gt;&lt;b&gt;&lt;font color=&quot;#ff0000&quot;&gt;datahash&lt;/font&gt;&lt;/b&gt;),..., *]&lt;/span&gt;" style="rounded=0;whiteSpace=wrap;html=1;fontSize=17;align=left;imageHeight=24;fillColor=#FFE6CC;strokeColor=#FF0000;strokeWidth=2;" vertex="1" parent="1">
          <mxGeometry x="1229" y="1069.25" width="250" height="25" as="geometry" />
        </mxCell>
        <mxCell id="2XsZhImcgwUFispmaOo--63" value="&lt;font style=&quot;font-size: 12px&quot;&gt;&lt;b&gt;CERTIFICATES&lt;/b&gt; : Stake/pool/MIR/Genesis ..&lt;/font&gt;" style="rounded=0;whiteSpace=wrap;html=1;fontSize=17;align=left;strokeColor=#d79b00;imageHeight=24;fillColor=#FFE6CC;" vertex="1" parent="1">
          <mxGeometry x="1229" y="1144.75" width="250" height="25" as="geometry" />
        </mxCell>
        <mxCell id="2XsZhImcgwUFispmaOo--64" value="&lt;font style=&quot;font-size: 12px&quot;&gt;&lt;b&gt;FEE&lt;/b&gt;: Coin&lt;/font&gt;" style="rounded=0;whiteSpace=wrap;html=1;fontSize=17;align=left;fillColor=#ffe6cc;strokeColor=#d79b00;imageHeight=24;" vertex="1" parent="1">
          <mxGeometry x="1229" y="1095.25" width="250" height="25" as="geometry" />
        </mxCell>
        <mxCell id="2XsZhImcgwUFispmaOo--65" value="&lt;font style=&quot;font-size: 12px&quot;&gt;&lt;b&gt;TIME TO LIVE (TTL)&lt;/b&gt;: Slot&lt;/font&gt;" style="rounded=0;whiteSpace=wrap;html=1;fontSize=17;align=left;fillColor=#ffe6cc;strokeColor=#d79b00;imageHeight=24;" vertex="1" parent="1">
          <mxGeometry x="1229" y="1119.25" width="250" height="25" as="geometry" />
        </mxCell>
        <mxCell id="2XsZhImcgwUFispmaOo--66" value="&lt;font style=&quot;font-size: 12px&quot;&gt;&lt;b&gt;WITHDRAWALS&lt;/b&gt; : {reward_account : coin,..}&lt;/font&gt;" style="rounded=0;whiteSpace=wrap;html=1;fontSize=17;align=left;fillColor=#ffe6cc;strokeColor=#d79b00;imageHeight=24;" vertex="1" parent="1">
          <mxGeometry x="1229" y="1170" width="250" height="25" as="geometry" />
        </mxCell>
        <mxCell id="2XsZhImcgwUFispmaOo--67" value="&lt;font style=&quot;font-size: 12px&quot;&gt;&lt;b&gt;UPDATE PROPOSAL&lt;/b&gt;: [params, epoch]&lt;/font&gt;" style="rounded=0;whiteSpace=wrap;html=1;fontSize=17;align=left;fillColor=#ffe6cc;strokeColor=#d79b00;imageHeight=24;" vertex="1" parent="1">
          <mxGeometry x="1229" y="1195" width="250" height="25" as="geometry" />
        </mxCell>
        <mxCell id="2XsZhImcgwUFispmaOo--68" value="&lt;font style=&quot;font-size: 12px&quot;&gt;&lt;b&gt;AUXILIARY DATA HASH&lt;/b&gt;: hash or null&lt;/font&gt;" style="rounded=0;whiteSpace=wrap;html=1;fontSize=17;align=left;strokeColor=#d79b00;imageHeight=24;fillColor=#FFE6CC;" vertex="1" parent="1">
          <mxGeometry x="1229" y="1220" width="250" height="26" as="geometry" />
        </mxCell>
        <mxCell id="2XsZhImcgwUFispmaOo--69" value="&lt;font style=&quot;font-size: 12px&quot;&gt;&lt;b&gt;SCRIPTS&lt;/b&gt;&lt;font color=&quot;#ff0000&quot;&gt;:&amp;nbsp; Same as Mary + non native&lt;/font&gt;&lt;br&gt;&lt;font color=&quot;#ff0000&quot;&gt;Map: {ScriptsHash |-&amp;gt; Script}&lt;/font&gt;&lt;br&gt;&lt;/font&gt;" style="rounded=0;whiteSpace=wrap;html=1;fontSize=17;align=left;verticalAlign=top;fillColor=#FFE6CC;strokeColor=#FF0000;strokeWidth=2;" vertex="1" parent="1">
          <mxGeometry x="1228.9" y="1394" width="250" height="55" as="geometry" />
        </mxCell>
        <mxCell id="2XsZhImcgwUFispmaOo--70" value="&amp;nbsp;Auxiliary data" style="rounded=0;whiteSpace=wrap;html=1;fontSize=12;align=center;fillColor=#6d8764;strokeColor=#3A5431;fontStyle=3;opacity=60;verticalAlign=top;fontColor=#ffffff;" vertex="1" parent="1">
          <mxGeometry x="1222.4" y="1615" width="268.6" height="148" as="geometry" />
        </mxCell>
        <mxCell id="2XsZhImcgwUFispmaOo--71" value="&lt;font style=&quot;font-size: 12px&quot;&gt;&lt;b&gt;&lt;i&gt;Witness Set&lt;/i&gt;&lt;/b&gt;&lt;/font&gt;" style="text;html=1;strokeColor=none;fillColor=none;align=center;verticalAlign=middle;whiteSpace=wrap;rounded=0;fontSize=17;opacity=40;" vertex="1" parent="1">
          <mxGeometry x="1280.3000000000002" y="1343" width="150" height="20" as="geometry" />
        </mxCell>
        <mxCell id="2XsZhImcgwUFispmaOo--72" value="&lt;font style=&quot;font-size: 12px&quot;&gt;&lt;b&gt;BOOTSTRAP_WITNESS&lt;/b&gt;: [[pk,sign,cc,attr],...]&lt;/font&gt;" style="rounded=0;whiteSpace=wrap;html=1;fontSize=17;align=left;strokeColor=#b85450;fillColor=#FFE6CC;" vertex="1" parent="1">
          <mxGeometry x="1228.9" y="1533" width="250" height="25" as="geometry" />
        </mxCell>
        <mxCell id="2XsZhImcgwUFispmaOo--73" value="&lt;font style=&quot;font-size: 12px&quot;&gt;&lt;b&gt;VKEYWITNESS&lt;/b&gt;: [&amp;nbsp;vkey || signature, ... ]&lt;/font&gt;" style="rounded=0;whiteSpace=wrap;html=1;fontSize=17;align=left;strokeColor=#b85450;fillColor=#FFE6CC;" vertex="1" parent="1">
          <mxGeometry x="1228.92" y="1368" width="250" height="25" as="geometry" />
        </mxCell>
        <mxCell id="2XsZhImcgwUFispmaOo--74" value="T&lt;br&gt;r&lt;br&gt;a&lt;br&gt;n&lt;br&gt;s&lt;br&gt;a&lt;br&gt;c&lt;br&gt;t&lt;br&gt;i&lt;br&gt;o&lt;br&gt;n&lt;br&gt;" style="text;html=1;strokeColor=none;fillColor=none;align=center;verticalAlign=middle;whiteSpace=wrap;rounded=0;fontSize=17;" vertex="1" parent="1">
          <mxGeometry x="1181" y="994.75" width="40" height="238.25" as="geometry" />
        </mxCell>
        <mxCell id="2XsZhImcgwUFispmaOo--75" value="&lt;font style=&quot;font-size: 16px&quot;&gt;Optional Metadata&lt;br&gt;&lt;/font&gt;" style="rounded=0;whiteSpace=wrap;html=1;fontSize=17;align=center;strokeColor=#97D077;verticalAlign=top;fillColor=#FFE6CC;" vertex="1" parent="1">
          <mxGeometry x="1231.7" y="1720" width="250" height="35" as="geometry" />
        </mxCell>
        <mxCell id="2XsZhImcgwUFispmaOo--76" value="&lt;span style=&quot;font-size: 12px&quot;&gt;&lt;span&gt;VALIDITY INTERVAL:&amp;nbsp;&lt;/span&gt;&amp;nbsp;[b, a&lt;/span&gt;&lt;span style=&quot;font-size: 12px&quot;&gt;] as Slot&lt;/span&gt;" style="rounded=0;whiteSpace=wrap;html=1;fontSize=17;align=left;imageHeight=24;fillColor=#FFE6CC;fontColor=#FF0000;fontStyle=3;strokeColor=#FF0000;strokeWidth=2;" vertex="1" parent="1">
          <mxGeometry x="468.9" y="1223" width="250" height="25" as="geometry" />
        </mxCell>
        <mxCell id="2XsZhImcgwUFispmaOo--77" value="&lt;span style=&quot;font-size: 12px&quot;&gt;&lt;span&gt;MINT&lt;/span&gt;: Always zero for Allegra&lt;/span&gt;" style="rounded=0;whiteSpace=wrap;html=1;fontSize=17;align=left;imageHeight=24;fillColor=#FFE6CC;fontColor=#FF0000;fontStyle=3;strokeColor=#FF0000;strokeWidth=2;" vertex="1" parent="1">
          <mxGeometry x="468.9" y="1248.5" width="250" height="25" as="geometry" />
        </mxCell>
        <mxCell id="2XsZhImcgwUFispmaOo--78" value="&lt;span style=&quot;font-size: 12px&quot;&gt;&lt;b&gt;MINT&lt;/b&gt;:&lt;i&gt;&lt;font color=&quot;#ff0000&quot;&gt;&lt;b&gt; [policy_id.asset_name,..,*]&lt;/b&gt;&lt;/font&gt;&lt;/i&gt;&lt;/span&gt;" style="rounded=0;whiteSpace=wrap;html=1;fontSize=17;align=left;imageHeight=24;fillColor=#FFE6CC;strokeColor=#FF0000;strokeWidth=2;" vertex="1" parent="1">
          <mxGeometry x="829.3" y="1249.5" width="250" height="25" as="geometry" />
        </mxCell>
        <mxCell id="2XsZhImcgwUFispmaOo--79" value="&lt;span style=&quot;font-size: 12px&quot;&gt;&lt;b&gt;VALIDITY INTERVAL:&amp;nbsp;&lt;/b&gt;&amp;nbsp;[b, a&lt;/span&gt;&lt;span style=&quot;font-size: 12px&quot;&gt;] as Slot&lt;/span&gt;" style="rounded=0;whiteSpace=wrap;html=1;fontSize=17;align=left;strokeColor=#d79b00;imageHeight=24;fillColor=#FFE6CC;" vertex="1" parent="1">
          <mxGeometry x="828.9" y="1223" width="250" height="26" as="geometry" />
        </mxCell>
        <mxCell id="2XsZhImcgwUFispmaOo--80" value="&lt;span style=&quot;font-size: 12px&quot;&gt;&lt;b&gt;MINT&lt;/b&gt;: [policy_id.asset_name,..,*]&lt;/span&gt;" style="rounded=0;whiteSpace=wrap;html=1;fontSize=17;align=left;strokeColor=#d79b00;imageHeight=24;fillColor=#FFE6CC;" vertex="1" parent="1">
          <mxGeometry x="1228.9" y="1272" width="250" height="25" as="geometry" />
        </mxCell>
        <mxCell id="2XsZhImcgwUFispmaOo--81" value="&lt;span style=&quot;font-size: 12px&quot;&gt;&lt;b&gt;VALIDITY INTERVAL:&amp;nbsp;&lt;/b&gt;&amp;nbsp;[b, a&lt;/span&gt;&lt;span style=&quot;font-size: 12px&quot;&gt;] as Slot&lt;/span&gt;" style="rounded=0;whiteSpace=wrap;html=1;fontSize=17;align=left;fillColor=#ffe6cc;strokeColor=#d79b00;imageHeight=24;" vertex="1" parent="1">
          <mxGeometry x="1228.9" y="1246" width="250" height="26" as="geometry" />
        </mxCell>
        <mxCell id="2XsZhImcgwUFispmaOo--82" value="&lt;font style=&quot;font-size: 12px&quot;&gt;&lt;b&gt;INPUTS&lt;/b&gt; (Set):&amp;nbsp; {(txid, id),..,(txid, id)}&lt;/font&gt;" style="rounded=0;whiteSpace=wrap;html=1;fontSize=17;align=left;fillColor=#ffe6cc;strokeColor=#d79b00;imageHeight=24;" vertex="1" parent="1">
          <mxGeometry x="829" y="1020.25" width="250" height="25" as="geometry" />
        </mxCell>
        <mxCell id="2XsZhImcgwUFispmaOo--83" value="&lt;font style=&quot;font-size: 18px&quot;&gt;&lt;ul style=&quot;font-size: 18px&quot;&gt;&lt;li style=&quot;font-size: 18px&quot;&gt;&lt;span style=&quot;font-size: 18px&quot;&gt;HFC in June 2020&lt;/span&gt;&lt;/li&gt;&lt;li style=&quot;font-size: 18px&quot;&gt;&lt;span style=&quot;font-size: 18px&quot;&gt;Initial Shelley&#39;s UTXO with&lt;/span&gt;&lt;/li&gt;&lt;li style=&quot;font-size: 18px&quot;&gt;&lt;span style=&quot;font-size: 18px&quot;&gt;metadata and&amp;nbsp;&lt;/span&gt;&lt;/li&gt;&lt;li style=&quot;font-size: 18px&quot;&gt;&lt;font style=&quot;font-size: 18px&quot;&gt;multisig (simple) scripts&lt;/font&gt;&lt;/li&gt;&lt;/ul&gt;&lt;/font&gt;" style="text;html=1;strokeColor=none;fillColor=none;align=left;verticalAlign=top;whiteSpace=wrap;rounded=0;fontSize=18;" vertex="1" parent="1">
          <mxGeometry x="62" y="1793" width="320" height="160" as="geometry" />
        </mxCell>
        <mxCell id="2XsZhImcgwUFispmaOo--84" value="&lt;div style=&quot;font-size: 18px&quot;&gt;&lt;ul&gt;&lt;li&gt;&lt;span style=&quot;font-size: 18px&quot;&gt;&lt;font style=&quot;font-size: 18px&quot;&gt;HFC on 16th Dec 2020&lt;/font&gt;&lt;/span&gt;&lt;/li&gt;&lt;li&gt;&lt;span style=&quot;font-size: 18px&quot;&gt;&lt;font style=&quot;font-size: 18px&quot;&gt;UTXO Time (token) locking&lt;/font&gt;&lt;/span&gt;&lt;/li&gt;&lt;/ul&gt;&lt;div&gt;&lt;span&gt;Changes&lt;/span&gt;&lt;/div&gt;&lt;div&gt;&lt;ul&gt;&lt;li&gt;&lt;span&gt;Added validity interval slot range [bef, aft] and&amp;nbsp;&lt;/span&gt;&lt;/li&gt;&lt;li&gt;mint field - Not used&lt;/li&gt;&lt;/ul&gt;&lt;/div&gt;&lt;/div&gt;" style="text;html=1;strokeColor=none;fillColor=none;align=left;verticalAlign=top;whiteSpace=wrap;rounded=0;fontSize=18;" vertex="1" parent="1">
          <mxGeometry x="421" y="1793" width="320" height="205" as="geometry" />
        </mxCell>
        <mxCell id="2XsZhImcgwUFispmaOo--85" value="&lt;ul style=&quot;font-size: 18px&quot;&gt;&lt;li style=&quot;font-size: 18px&quot;&gt;&lt;span style=&quot;font-size: 18px&quot;&gt;HFC om 22nd Feb 2021&lt;/span&gt;&lt;/li&gt;&lt;li style=&quot;font-size: 18px&quot;&gt;&lt;span style=&quot;font-size: 18px&quot;&gt;UTXO with multi-assets (native tokens) with native script monetary policies a.k.a UTXOma.&lt;/span&gt;&lt;/li&gt;&lt;/ul&gt;&lt;div&gt;Changes&lt;/div&gt;&lt;div&gt;&lt;ul&gt;&lt;li&gt;Replaced coins /w value for supporting native-tokens&lt;/li&gt;&lt;li&gt;Renamed metadata to auxiliary data&lt;/li&gt;&lt;li&gt;renamed multisig scripts to native scripts&lt;/li&gt;&lt;li&gt;mint field has purpose.&lt;/li&gt;&lt;/ul&gt;&lt;/div&gt;" style="text;html=1;strokeColor=none;fillColor=none;align=left;verticalAlign=top;whiteSpace=wrap;rounded=0;fontSize=18;" vertex="1" parent="1">
          <mxGeometry x="790" y="1793" width="320" height="335" as="geometry" />
        </mxCell>
        <mxCell id="2XsZhImcgwUFispmaOo--86" value="&lt;font style=&quot;font-size: 18px&quot;&gt;&lt;ul style=&quot;font-size: 18px&quot;&gt;&lt;li style=&quot;text-align: left ; font-size: 18px&quot;&gt;&lt;span style=&quot;font-size: 18px&quot;&gt;HFC in Q2 2021&lt;/span&gt;&lt;/li&gt;&lt;li style=&quot;text-align: left ; font-size: 18px&quot;&gt;&lt;font style=&quot;font-size: 18px&quot;&gt;EUTXO with non-native scripts (e.g. Plutus Core) with non-native script monetary-policies a.k.a EUTXOma&lt;/font&gt;&lt;/li&gt;&lt;/ul&gt;&lt;div style=&quot;text-align: left&quot;&gt;Changes&lt;/div&gt;&lt;div style=&quot;text-align: left&quot;&gt;&lt;ul&gt;&lt;li&gt;Added EUTXO features namely&lt;/li&gt;&lt;/ul&gt;&lt;ol&gt;&lt;li&gt;&lt;span&gt;added non-native scripts (plutus core)&lt;/span&gt;&lt;/li&gt;&lt;li&gt;&lt;span&gt;added redemers for input and&amp;nbsp;&lt;/span&gt;&lt;/li&gt;&lt;li&gt;datum for outputs for native scripts validation&lt;/li&gt;&lt;/ol&gt;&lt;/div&gt;&lt;div style=&quot;text-align: left&quot;&gt;&lt;ul&gt;&lt;li&gt;added non-native scripts running fee calculation and two-phase validation&lt;/li&gt;&lt;/ul&gt;&lt;/div&gt;&lt;/font&gt;" style="text;html=1;strokeColor=none;fillColor=none;align=center;verticalAlign=top;whiteSpace=wrap;rounded=0;fontSize=18;" vertex="1" parent="1">
          <mxGeometry x="1181" y="1793" width="320" height="430" as="geometry" />
        </mxCell>
        <mxCell id="2XsZhImcgwUFispmaOo--87" value="Allegra" style="text;html=1;strokeColor=none;fillColor=none;align=center;verticalAlign=middle;whiteSpace=wrap;rounded=0;fontSize=24;" vertex="1" parent="1">
          <mxGeometry x="421" y="923" width="320" height="60" as="geometry" />
        </mxCell>
        <mxCell id="2XsZhImcgwUFispmaOo--88" value="Mary" style="text;html=1;strokeColor=none;fillColor=none;align=center;verticalAlign=middle;whiteSpace=wrap;rounded=0;fontSize=24;" vertex="1" parent="1">
          <mxGeometry x="781" y="923" width="320" height="60" as="geometry" />
        </mxCell>
        <mxCell id="2XsZhImcgwUFispmaOo--89" value="Alonzo" style="text;html=1;strokeColor=none;fillColor=none;align=center;verticalAlign=middle;whiteSpace=wrap;rounded=0;fontSize=24;" vertex="1" parent="1">
          <mxGeometry x="1181" y="923" width="320" height="60" as="geometry" />
        </mxCell>
        <mxCell id="2XsZhImcgwUFispmaOo--90" value="&lt;font style=&quot;font-size: 12px&quot;&gt;&lt;b&gt;WITNESSPPDATA&amp;nbsp; HASH&lt;/b&gt;:&lt;i&gt;&lt;b&gt;&lt;font color=&quot;#ffff00&quot;&gt; &lt;/font&gt;&lt;font color=&quot;#ff0000&quot;&gt;hash script data&lt;/font&gt;&lt;/b&gt;&lt;/i&gt;&lt;/font&gt;" style="rounded=0;whiteSpace=wrap;html=1;fontSize=17;align=left;imageHeight=24;fillColor=#FFE6CC;strokeColor=#FF0000;strokeWidth=2;" vertex="1" parent="1">
          <mxGeometry x="1230.3" y="1297" width="250" height="26" as="geometry" />
        </mxCell>
        <mxCell id="2XsZhImcgwUFispmaOo--91" value="&lt;font style=&quot;font-size: 16px&quot;&gt;Optional Scripts&lt;br&gt;&lt;/font&gt;" style="rounded=0;whiteSpace=wrap;html=1;fontSize=17;align=center;verticalAlign=top;fontStyle=1;fillColor=#FFE6CC;fontColor=#FF0000;strokeColor=#FF0000;strokeWidth=2;" vertex="1" parent="1">
          <mxGeometry x="1230.3000000000002" y="1650" width="250" height="35" as="geometry" />
        </mxCell>
        <mxCell id="2XsZhImcgwUFispmaOo--92" value="&lt;font style=&quot;font-size: 16px&quot;&gt;Optional Datums&lt;br&gt;&lt;/font&gt;" style="rounded=0;whiteSpace=wrap;html=1;fontSize=17;align=center;verticalAlign=top;fontStyle=1;fillColor=#FFE6CC;fontColor=#FF0000;strokeWidth=2;strokeColor=#FF0000;" vertex="1" parent="1">
          <mxGeometry x="1230.3000000000002" y="1685" width="250" height="35" as="geometry" />
        </mxCell>
        <mxCell id="2XsZhImcgwUFispmaOo--93" value="&lt;font style=&quot;font-size: 16px&quot;&gt;&lt;font color=&quot;#ff0000&quot;&gt;&lt;i&gt;&lt;b&gt;isValidating&lt;br&gt;&lt;/b&gt;Validation tag&lt;/i&gt;&lt;/font&gt;&lt;br&gt;&lt;/font&gt;" style="rounded=0;whiteSpace=wrap;html=1;fontSize=17;align=center;opacity=60;verticalAlign=top;fillColor=#e3c800;fontColor=#ffffff;strokeColor=#FF0000;strokeWidth=2;" vertex="1" parent="1">
          <mxGeometry x="1221" y="1565" width="270" height="50" as="geometry" />
        </mxCell>
        <mxCell id="2XsZhImcgwUFispmaOo--94" style="edgeStyle=orthogonalEdgeStyle;rounded=0;orthogonalLoop=1;jettySize=auto;html=1;exitX=0.5;exitY=1;exitDx=0;exitDy=0;fontSize=18;" edge="1" parent="1" source="2XsZhImcgwUFispmaOo--98" target="2XsZhImcgwUFispmaOo--98">
          <mxGeometry relative="1" as="geometry" />
        </mxCell>
        <mxCell id="2XsZhImcgwUFispmaOo--95" value="&lt;font style=&quot;font-size: 12px&quot;&gt;&lt;b&gt;DATUMS&lt;/b&gt;: Map: {DataHash |-&amp;gt; Datum}&lt;br&gt;&lt;/font&gt;" style="rounded=0;whiteSpace=wrap;html=1;fontSize=17;align=left;verticalAlign=middle;fillColor=#FFE6CC;strokeColor=#FF0000;strokeWidth=2;fontColor=#FF0000;" vertex="1" parent="1">
          <mxGeometry x="1228.92" y="1448" width="250" height="40" as="geometry" />
        </mxCell>
        <mxCell id="2XsZhImcgwUFispmaOo--96" value="&lt;font style=&quot;font-size: 12px&quot;&gt;&lt;b&gt;REDEMERS&lt;/b&gt;: Map: &lt;br&gt;{RdmrPtr |-&amp;gt; (Redeemer, ExtUnits)}&lt;/font&gt;" style="rounded=0;whiteSpace=wrap;html=1;fontSize=17;align=left;fillColor=#FFE6CC;strokeColor=#FF0000;strokeWidth=2;fontColor=#FF0000;" vertex="1" parent="1">
          <mxGeometry x="1228.9" y="1488" width="250" height="45" as="geometry" />
        </mxCell>
        <mxCell id="2XsZhImcgwUFispmaOo--97" value="&lt;font style=&quot;font-size: 12px&quot;&gt;&lt;b&gt;FEE INPUTS&lt;/b&gt; (Set):&amp;nbsp; {(txid, id, &lt;b&gt;&lt;font&gt;redemer&lt;/font&gt;&lt;/b&gt;),.., *}&lt;/font&gt;" style="rounded=0;whiteSpace=wrap;html=1;fontSize=17;align=left;imageHeight=24;fillColor=#FFE6CC;strokeColor=#FF0000;strokeWidth=2;fontColor=#FF0000;" vertex="1" parent="1">
          <mxGeometry x="1228.9" y="1045.25" width="250" height="25" as="geometry" />
        </mxCell>
        <mxCell id="2XsZhImcgwUFispmaOo--98" value="&lt;font style=&quot;font-size: 16px&quot;&gt;Optional Metadata&lt;br&gt;&lt;/font&gt;" style="rounded=0;whiteSpace=wrap;html=1;fontSize=17;align=center;strokeColor=#97D077;verticalAlign=top;fillColor=#FFE6CC;" vertex="1" parent="1">
          <mxGeometry x="830.3" y="1645" width="250" height="30" as="geometry" />
        </mxCell>
        <mxCell id="2XsZhImcgwUFispmaOo--99" value="&lt;font style=&quot;font-size: 12px&quot;&gt;Medadata&lt;/font&gt;" style="rounded=0;whiteSpace=wrap;html=1;fontSize=12;align=center;fillColor=#6d8764;strokeColor=#3A5431;fontStyle=3;opacity=60;verticalAlign=top;fontColor=#ffffff;" vertex="1" parent="1">
          <mxGeometry x="461" y="1615" width="268.6" height="148" as="geometry" />
        </mxCell>
        <mxCell id="2XsZhImcgwUFispmaOo--100" value="&lt;font style=&quot;font-size: 16px&quot;&gt;Optional Metadata&lt;br&gt;&lt;/font&gt;" style="rounded=0;whiteSpace=wrap;html=1;fontSize=17;align=center;strokeColor=#97D077;verticalAlign=top;fillColor=#FFE6CC;" vertex="1" parent="1">
          <mxGeometry x="469" y="1645" width="250" height="30" as="geometry" />
        </mxCell>
      </root>
    </mxGraphModel>
  </diagram>
</mxfile>
